HIERARCHY
ROOT Hips
{
  OFFSET 38.9147 91.8337 -60.2866
  CHANNELS 6 Xposition Yposition Zposition Zrotation Xrotation Yrotation
  JOINT ToSpine
  {
    OFFSET -2.69724 7.43032 -0.144315
    CHANNELS 3 Zrotation Xrotation Yrotation
    JOINT Spine
    {
      OFFSET -0.0310711 10.7595 1.96963
      CHANNELS 3 Zrotation Xrotation Yrotation
      JOINT Spine1
      {
        OFFSET 19.9056 3.91189 0.764692
        CHANNELS 3 Zrotation Xrotation Yrotation
        JOINT Neck
        {
          OFFSET 25.9749 7.03908 -0.130764
          CHANNELS 3 Zrotation Xrotation Yrotation
          JOINT Head
          {
            OFFSET 9.52751 0.295786 -0.907742
            CHANNELS 3 Zrotation Xrotation Yrotation
            End Site
            {
              OFFSET 16.4037 0.713936 2.7358
            }
          }
        }
        JOINT LeftShoulder
        {
          OFFSET 17.7449 4.33886 11.7777
          CHANNELS 3 Zrotation Xrotation Yrotation
          JOINT LeftArm
          {
            OFFSET 0.911315 1.27913 9.80584
            CHANNELS 3 Zrotation Xrotation Yrotation
            JOINT LeftForeArm
            {
              OFFSET 28.6126 1.18197 -3.53199
              CHANNELS 3 Zrotation Xrotation Yrotation
              JOINT LeftHand
              {
                OFFSET 27.5088 0.0218783 0.327423
                CHANNELS 3 Zrotation Xrotation Yrotation
                End Site
                {
                  OFFSET 18.6038 -0.000155887 0.382096
                }
              }
            }
          }
        }
        JOINT RightShoulder
        {
          OFFSET 17.1009 2.89543 -12.2328
          CHANNELS 3 Zrotation Xrotation Yrotation
          JOINT RightArm
          {
            OFFSET 1.4228 0.178766 -10.211
            CHANNELS 3 Zrotation Xrotation Yrotation
            JOINT RightForeArm
            {
              OFFSET 28.733 1.87905 2.64907
              CHANNELS 3 Zrotation Xrotation Yrotation
              JOINT RightHand
              {
                OFFSET 27.4588 0.290562 -0.101845
                CHANNELS 3 Zrotation Xrotation Yrotation
                End Site
                {
                  OFFSET 17.8396 -0.255518 -0.000602873
                }
              }
            }
          }
        }
      }
    }
  }
  JOINT LeftUpLeg
  {
    OFFSET -5.61296 -2.22332 -10.2353
    CHANNELS 3 Zrotation Xrotation Yrotation
    JOINT LeftLeg
    {
      OFFSET 2.56703 -44.7417 -7.93097
      CHANNELS 3 Zrotation Xrotation Yrotation
      JOINT LeftFoot
      {
        OFFSET 3.16933 -46.5642 -3.96578
        CHANNELS 3 Zrotation Xrotation Yrotation
        JOINT LeftToeBase
        {
          OFFSET 0.346054 -6.02161 12.8035
          CHANNELS 3 Zrotation Xrotation Yrotation
          End Site
          {
            OFFSET 0.134235 -1.35082 5.13018
          }
        }
      }
    }
  }
  JOINT RightUpLeg
  {
    OFFSET -5.7928 -1.72406 10.6446
    CHANNELS 3 Zrotation Xrotation Yrotation
    JOINT RightLeg
    {
      OFFSET -2.57161 -44.7178 -7.85259
      CHANNELS 3 Zrotation Xrotation Yrotation
      JOINT RightFoot
      {
        OFFSET -3.10148 -46.5936 -4.03391
        CHANNELS 3 Zrotation Xrotation Yrotation
        JOINT RightToeBase
        {
          OFFSET -0.0828122 -6.13587 12.8035
          CHANNELS 3 Zrotation Xrotation Yrotation
          End Site
          {
            OFFSET -0.131328 -1.35082 5.13018
          }
        }
      }
    }
  }
}
MOTION
Frames:	20
Frame Time:	0.0333333
57.6935 81.5836 -95.1563 62.6626 32.628 18.2807 -70.1915 0 88.8779 152.694 54.3519 -65.1958 11.8583 22.6322 -2.02668 -163.297 20.9752 176.993 -134.384 58.1246 178.626 1.5632 -6.07215 -23.8233 -60.7127 37.6979 -168.225 19.116 21.7034 -39.1088 18.4149 -0.209164 0.397667 0.0452658 4.00795 16.2354 -69.8368 -42.0781 145.951 31.7568 -15.225 65.0233 2.13736 0.0250442 1.5019 1.64925 18.5608 97.356 -72.7803 85.6828 61.8581 8.0574 7.57284 -1.06583 -9.47654 -37.8579 5.76879 -0.763492 -20.9423 73.4484 73.7011 85.3838 -56.9137 -7.65429 -7.40798 1.13542 7.66611 -9.17645 -15.2448 
58.4704 79.2172 -96.075 62.9988 32.4975 18.458 -70.1915 0 88.8779 153.793 54.0036 -65.7866 12.3095 22.7786 -1.75192 -163.587 21.3934 178.202 -134.885 58.9622 -179.818 1.53262 -6.02897 -22.8534 -59.7622 36.4579 -169.517 19.094 20.8918 -40.1193 19.3268 -0.134418 0.891688 0.0998992 3.73049 15.1066 -68.7469 -42.2702 146.967 33.2297 -15.1063 66.492 2.05677 0.0291018 1.93155 3.78797 19.4773 96.3639 -127.687 84.4816 117.198 9.23531 8.60742 -1.29172 -10.7796 -42.1467 4.60483 0.906504 -22.0389 74.0196 124.154 84.272 -106.713 -7.97965 -7.86844 1.15505 8.45028 -13.1108 -14.8416 
59.3317 76.6328 -96.9395 63.4627 32.4719 17.9141 -70.1915 0 88.8779 154.168 53.5064 -66.4127 12.2949 22.8535 -1.8412 -163.496 21.2932 177.99 -134.324 58.7332 179.818 1.53632 -5.60113 -21.7209 -58.9523 35.278 -169.94 19.0298 19.8896 -41.3722 20.7779 -0.302291 0.0490464 0.141751 3.63215 14.055 -67.51 -43.3108 148.221 35.6797 -15.914 67.3776 0.892308 0.00755056 2.68056 5.69223 20.1171 95.7102 -150.518 80.6053 140.681 9.29238 8.89766 -1.30517 -12.0006 -45.1289 2.81998 3.0707 -23.0404 75.6049 147.865 80.4517 -129.774 -7.93705 -8.36765 1.15399 9.14754 -15.8 -15.1234 
60.3378 74.0452 -97.8277 64.3458 32.4706 17.7819 -70.1915 0 88.8779 155.015 52.9041 -67.1387 12.106 22.8792 -1.32273 -163.195 21.3533 178.942 -136.689 59.448 -177.55 1.49581 -5.35348 -20.1616 -58.2863 34.5641 -170.093 20.2196 19.9536 -43.3723 21.2595 -0.114629 1.0714 0.21776 3.24062 12.0613 -65.3002 -44.4976 150.989 37.4965 -17.669 66.5951 0.823961 0.00729055 3.5783 7.56486 20.8029 94.1856 -159.507 75.9102 149.929 9.31526 8.64564 -1.30754 -12.8706 -47.2287 1.93108 4.37327 -23.5665 76.5843 156.919 76.2821 -138.901 -8.22571 -8.75437 1.1681 9.70806 -18.2741 -14.9828 
61.2476 71.4666 -98.6189 65.7301 32.5081 17.228 -70.1915 0 88.8779 156.088 52.0493 -67.9506 12.1704 23.117 -1.41035 -162.688 21.7177 178.58 -135.814 59.6739 -177.984 1.40375 -5.31774 -17.9489 -57.784 34.2954 -170.707 22.0747 20.9185 -45.0871 21.5636 -0.0218212 1.5605 0.287139 2.93867 9.86431 -64.6551 -46.0606 152.914 37.8574 -19.1619 65.1274 -0.171524 -0.0297968 3.98847 8.98537 21.4632 92.735 -163.865 71.076 154.541 9.573 9.27065 -1.3642 -13.9881 -49.8481 1.04188 5.36912 -23.6556 77.7714 161.462 72.1633 -143.509 -8.0211 -8.31399 1.15802 10.5472 -21.8263 -14.769 
62.298 68.9303 -99.3982 66.666 33.1915 16.6875 -70.1915 0 88.8779 156.336 51.3401 -68.2444 11.8744 22.9455 -1.2432 -162.267 22.1612 -179.78 -140.206 61.1383 -173.141 1.39375 -4.72445 -16.8403 -57.4125 33.0231 -171.297 24.0736 21.8237 -46.9217 18.5301 0.187239 2.79257 0.343836 2.81525 7.88929 -63.5943 -48.0301 154.748 39.6007 -21.0586 64.4593 -0.664067 -0.0485215 3.99041 10.5593 21.4657 91.6235 -166.34 66.1566 156.887 9.20273 8.91372 -1.2877 -14.1208 -50.5891 1.4847 6.65552 -24.0514 79.511 164.326 67.7584 -146.167 -7.15142 -7.631 1.1086 11.5932 -25.7861 -14.938 
63.33 66.4459 -100.078 67.9689 33.961 15.8611 -70.1915 0 88.8779 156.658 50.4787 -68.7568 11.6049 22.947 -1.32167 -161.731 22.7509 -178.798 -144.427 62.47 -168.164 1.33889 -4.54553 -15.5087 -56.5864 32.4546 -171.904 25.9718 22.4402 -48.8029 15.1441 0.100763 2.39414 0.371098 2.36198 6.31448 -62.5549 -50.1077 156.348 44.307 -23.2397 66.0008 -1.75767 -0.0853303 3.7627 11.8919 21.4112 90.1286 -167.758 61.3147 157.176 8.87282 8.80565 -1.22241 -14.2138 -50.8639 1.49377 7.46194 -24.4137 81.1856 166.219 63.5971 -148.711 -7.03298 -7.31157 1.09872 12.3764 -29.1453 -13.7859 
64.3504 63.9592 -100.748 69.1759 34.852 14.9283 -70.1915 0 88.8779 156.498 49.8692 -68.9337 11.3828 22.7834 -1.54734 -160.561 22.777 -178.601 -146.45 62.8535 -164.414 1.28372 -4.40542 -14.282 -55.8571 31.4677 -172.109 28.3599 23.5868 -50.5324 15.9334 -0.194751 0.292994 0.391925 2.31359 5.40218 -61.7101 -50.5058 157.012 45.0636 -23.1694 66.6234 -0.295845 -0.0238127 2.65888 13.2094 21.2059 88.6099 -168.653 56.6502 156.564 8.49466 8.34423 -1.14783 -14.021 -50.5398 1.7729 8.42398 -25.1401 83.0411 167.51 59.1317 -149.458 -6.92158 -6.58541 1.08401 13.38 -32.5526 -14.0056 
65.2616 61.4942 -101.4 70.616 35.6874 13.9402 -70.1915 0 88.8779 156.625 49.3405 -69.1685 11.2939 22.8375 -1.91805 -158.945 22.5345 -179.238 -146.056 62.7647 -162.134 1.2244 -4.80333 -13.3745 -55.3174 30.7421 -172.132 30.7949 24.3255 -52.614 15.7126 -0.0571114 1.24972 0.369908 1.63881 4.78886 -60.3703 -50.8287 157.866 45.3339 -22.5573 67.3626 -2.91233 -0.120934 3.5691 14.2968 21.2953 87.2664 -169.29 52.3102 156.1 7.9959 8.15295 -1.05284 -14.1904 -50.4176 1.03322 9.21891 -25.9446 84.7317 168.47 54.7785 -150.385 -6.79713 -7.75162 1.09044 13.6493 -33.3699 -14.5189 
66.1418 58.9259 -102.104 71.9895 36.5608 12.8624 -70.1915 0 88.8779 156.206 48.8612 -69.0226 10.8867 22.5295 -2.26032 -157.212 22.4466 -179.86 -148.427 62.9333 -158.279 1.16661 -5.25222 -12.3859 -54.5094 30.7509 -171.32 33.242 25.0398 -54.5664 16.9966 -0.0391613 1.40305 0.372411 1.59168 4.5163 -59.4431 -50.2736 157.919 46.0614 -21.6777 68.652 -2.61153 -0.117654 3.81818 15.3073 21.2734 86.3237 -169.831 48.12 156.394 7.94734 7.83888 -1.04463 -14.4709 -50.6969 0.406116 10.5422 -27.3131 87.1825 169.125 50.2851 -150.003 -6.73328 -7.70071 1.0863 14.014 -34.7181 -13.7078 
67.1472 56.4426 -102.696 73.6302 36.9899 11.709 -70.1915 0 88.8779 155.99 48.8257 -69.3125 11.234 22.6702 -2.46743 -156.8 22.6066 179.294 -150.009 63.1929 -156.412 1.13509 -6.01301 -12.0356 -53.8667 30.8606 -170.24 36.1192 25.4938 -57.0558 16.1761 0.0700206 2.13967 0.343616 1.06326 4.39266 -58.4423 -49.3509 158.102 45.9838 -20.3351 69.8115 -2.32957 -0.0989156 3.49121 15.8076 22.4198 85.1868 -170.177 44.0091 155.719 8.0054 6.11257 -1.06016 -14.0051 -50.0513 1.23448 11.3907 -27.7752 89.4798 169.618 46.1032 -149.845 -7.13156 -7.89235 1.10998 14.321 -35.8099 -12.6243 
68.0186 53.9279 -103.419 74.9357 37.8928 11.2537 -70.1915 0 88.8779 155.251 48.7723 -68.3582 11.4372 22.1487 -2.76407 -156.504 22.6527 178.826 -152.075 63.3149 -154.394 1.09498 -6.59735 -11.1637 -53.2575 31.927 -168.899 37.678 25.9758 -58.0982 17.7491 0.0510464 1.98358 0.350935 1.23399 4.56749 -57.8836 -48.6622 157.72 47.7652 -19.4194 71.7407 -2.46569 -0.10038 3.37587 16.909 22.2417 83.3715 -170.448 39.9706 155.059 8.09618 5.65064 -1.07672 -14.1079 -50.5044 1.42747 12.1134 -28.8884 91.6473 169.959 42.0904 -149.152 -6.99496 -9.38052 1.11868 14.228 -35.5703 -12.0915 
68.8916 51.5046 -103.769 77.0912 38.2389 9.3885 -70.1915 0 88.8779 154.835 48.0462 -69.1702 11.2799 22.128 -3.22176 -156.99 22.8016 178.426 -155.021 63.5129 -151.942 1.0652 -6.65581 -10.2314 -52.8975 32.7616 -167.997 39.5338 26.3561 -59.4634 17.7091 0.0981354 2.28082 0.342488 1.25825 5.18842 -58.0733 -48.0579 156.792 49.1774 -18.1117 73.6843 -3.16784 -0.121971 3.33573 17.0719 23.0799 81.7217 -170.581 36.4482 153.608 8.23608 5.31055 -1.10055 -14.3271 -51.0308 1.30617 13.101 -28.8267 94.3875 170.277 38.2283 -149.419 -7.19634 -9.83024 1.1308 14.316 -35.9091 -11.1924 
69.6843 49.1778 -104.295 79.1171 38.9813 8.08938 -70.1915 0 88.8779 154.512 47.8411 -69.1602 11.6049 21.9408 -3.35433 -156.823 23.0496 178.283 -157.924 63.7369 -149.335 1.02282 -6.22841 -8.94527 -52.0952 33.5918 -168.571 41.8234 26.7435 -61.1352 15.4429 0.157275 2.78922 0.332602 1.21095 5.67019 -58.0951 -47.798 155.454 50.116 -16.1045 75.8961 -2.8345 -0.091135 2.67185 17.4393 23.3417 80.0239 -170.713 33.0242 152.715 8.68224 5.37295 -1.17468 -14.735 -51.6052 0.626712 13.6028 -29.4486 97.0101 170.466 34.2683 -148.347 -7.4688 -9.8807 1.14097 14.4341 -36.2239 -11.6877 
70.4239 46.8567 -104.812 81.1068 39.5145 6.47781 -70.1915 0 88.8779 154.615 47.3966 -69.5051 11.0869 22.1179 -3.88552 -155.422 23.1868 178.085 -160.299 63.7744 -147.192 0.910904 -5.84584 -6.0718 -50.5088 34.8499 -170.094 43.455 25.6683 -63.3891 10.9252 0.0725596 2.36236 0.309062 1.26523 7.31509 -59.4164 -47.3573 152.451 52.6359 -14.5387 78.3077 -2.94392 -0.0919568 2.60526 17.486 23.9526 78.6675 -170.798 29.7239 151.567 8.58538 4.9995 -1.15774 -14.9947 -52.1817 0.468147 14.3322 -29.8321 100.115 170.633 30.5297 -147.899 -8.09408 -10.8005 1.16425 14.3208 -35.8927 -11.5892 
71.1439 44.6426 -105.311 82.651 40.045 5.48024 -70.1915 0 88.8779 155.162 48.0755 -69.9362 11.481 22.5784 -2.71148 -154.561 23.9195 179.858 -164.095 64.2487 -143.754 0.878189 -5.46717 -5.56488 -49.5123 34.2899 -172.214 43.1521 24.3231 -64.298 12.9141 -0.0602443 1.12164 0.305393 0.94571 6.78173 -60.6745 -48.6453 149.85 58.988 -13.145 81.5767 -4.62489 -0.101187 1.85654 18.2114 24.2992 76.5495 -170.847 26.5425 150.181 9.65078 5.5294 -1.33746 -15.4509 -53.1675 0.18883 15.2956 -30.5884 102.921 170.684 27.1507 -145.945 -7.82905 -8.72654 1.14991 15.2523 -38.6087 -10.6321 
71.8009 42.6338 -105.717 84.4779 39.7933 3.76979 -70.1915 0 88.8779 155.722 48.0439 -70.8602 11.0464 23.3017 -3.17045 -152.852 23.6489 179.141 -165.658 63.8065 -143.508 0.715965 -4.96059 -2.42864 -47.0841 34.2276 -175.536 41.7275 23.7029 -63.7236 12.4884 0.0916857 2.45405 0.283598 0.804619 8.16855 -60.7482 -47.737 147.398 61.7157 -11.5816 83.3424 -0.0622048 0.00489624 -1.0966 18.4777 25.9035 74.1579 -170.816 23.6803 147.47 10.156 4.77939 -1.41042 -15.1457 -52.7015 0.597994 16.2162 -30.3953 105.723 170.727 23.847 -144.246 -7.37694 -7.8879 1.123 15.6965 -39.8501 -10.8772 
72.3105 40.7935 -106.011 86.4245 40.0361 1.84621 -70.1915 0 88.8779 156.033 47.6542 -71.8412 10.1516 23.6411 -2.96703 -151.171 23.4333 178.572 -166.768 63.4749 -142.789 0.550088 -4.63504 0.537217 -43.9042 36.3142 -178.421 44.6856 24.0869 -65.6694 12.2924 0.0468057 2.05971 0.27503 0.688334 8.68183 -60.4489 -48.4427 145.748 64.3603 -9.36071 85.228 -0.329425 0.0103691 -1.54712 18.5227 27.0222 72.2464 -170.791 21.2276 145.143 10.406 4.64972 -1.44841 -15.1643 -52.4567 0.251476 16.7907 -30.9324 109.253 170.725 21.0827 -142.02 -7.59954 -7.77619 1.13425 15.9458 -40.5065 -10.5116 
72.732 39.0803 -106.472 87.9515 41.0542 0.990746 -70.1915 0 88.8779 156.266 47.1732 -71.5642 9.18937 23.4268 -2.6769 -149.395 23.2588 178.201 -165.835 63.3641 -142.156 0.45202 -4.47843 2.2009 -41.8764 37.5134 -179.935 47.4641 24.2432 -67.5416 13.3142 0.165093 3.02296 0.268016 0.473501 8.95207 -60.2331 -49.6714 144.705 65.2718 -7.12616 86.6005 -1.85584 0.0457033 -2.44822 19.228 27.165 70.1486 -170.79 18.8848 143.601 11.0309 5.10018 -1.55888 -15.5338 -52.7342 -0.582738 17.2221 -32.5084 113.392 170.683 18.6758 -138.527 -8.36247 -8.01841 1.1753 15.8348 -40.1747 -10.0555 
73.2981 37.7391 -106.627 89.6831 40.5571 -0.583745 -70.1915 0 88.8779 156.52 47.0344 -72.639 8.54086 23.8339 -2.38334 -148.533 23.8083 178.137 -168.348 63.6731 -139.788 0.43837 -4.72359 3.00376 -40.3726 38.0864 179.638 45.0009 23.666 -66.257 14.324 0.167475 2.95098 0.266918 0.325436 8.72753 -58.0252 -49.9557 146.019 66.2419 -6.05278 87.2926 -1.70132 0.0830941 -4.42639 19.0985 29.5578 66.8715 -170.717 16.9504 139.709 11.2932 3.8195 -1.56944 -14.6471 -51.1317 0.344459 17.2643 -32.3405 116.235 170.677 16.7204 -136.564 -8.77533 -8.24498 1.19569 15.708 -39.7886 -9.20972 
